<?xml version="1.0" encoding="utf-8"?>
<!-- Generator: Adobe Illustrator 25.1.0, SVG Export Plug-In . SVG Version: 6.00 Build 0)  -->
<svg version="1.1" id="layer" xmlns="http://www.w3.org/2000/svg" xmlns:xlink="http://www.w3.org/1999/xlink" x="0px" y="0px"
	 viewBox="0 0 102 32" style="enable-background:new 0 0 102 32;" xml:space="preserve">
<style type="text/css">
	.st0{fill:#231815;}
</style>
<path id="paths" class="st0" d="M7.6,6.9V5.2c0,0,0-0.1,0.1-0.1h8c0,0,0.1,0,0.1,0.1v1.9c0,0,0,0.1-0.1,0.1L7.6,6.9
	C7.6,7.1,7.6,7.1,7.6,6.9z M75.7,21.1C75.9,21.2,75.9,21.2,75.7,21.1c0,0.1,0,0.3-0.1,0.3h-2.8c0,0,0,0-0.1,0l-4.1-4.1v4.1
	c0,0,0,0.1-0.1,0.1h-2.5c0,0-0.1,0-0.1-0.1v-4.3h-1.2l-4.9,4.3c0,0,0,0-0.1,0h-3.1c0,0-0.1,0-0.1-0.1v-0.1l4.8-4h-4.4
	c0,0-0.1,0-0.1-0.1v-1.9c0,0,0-0.1,0.1-0.1h9.1v-1.1h-5.6h-2h-0.4c0,0-0.1,0-0.1-0.1V4.8h-1.9c0,0-0.1,0-0.1-0.1V4.5l4-4.5
	c0,0,0,0,0.1,0h2.5c0,0,0.1,0,0.1,0.1v0.1l-2,2.4h5.9l1.6-2c0,0,0,0,0.1,0h2.5h0.1v0.1l-1.3,1.9h5.7c0,0,0,0,0,0.1v1.9
	c0,0,0,0.1-0.1,0.1h-6.4v1.1h5.1c0,0,0.1,0,0.1,0.1v1.6c0,0,0,0.1-0.1,0.1h-5.1v1.2h5.1c0,0,0.1,0,0.1,0.1v1.6c0,0,0,0.1-0.1,0.1
	h-5.1v1.1h6.4c0,0,0.1,0,0.1,0.1v1.9c0,0,0,0.1-0.1,0.1h-6.4v1.1h7.1c0,0,0.1,0,0.1,0.1v1.9c0,0,0,0.1-0.1,0.1h-3.7L75.7,21.1z
	 M65.9,5.9V4.8h-5.5v7.1h5.5v-1.1h-4.1c0,0-0.1,0-0.1-0.1V8.9c0,0,0-0.1,0.1-0.1h4.1V7.7h-4.1c0,0-0.1,0-0.1-0.1V6
	c0,0,0-0.1,0.1-0.1H65.9z M97.1,8.4h-2.5V5.5c0,0,0-0.1-0.1-0.1H92c0,0-0.1,0-0.1,0.1v2.9h-6.3c0,0-0.1,0-0.1,0.1v1.9
	c0,0,0,0.1,0.1,0.1h6.3v6.8c0,0,0,0.1,0.1,0.1h2.4c0,0,0.1,0,0.1-0.1v-6.8h2.5c0,0,0.1,0,0.1-0.1L97.1,8.4
	C97.2,8.4,97.1,8.4,97.1,8.4z M42.7,3.3h5.6l-1.9,3.6v0.1c0,0,0,0,0.1,0h1.9h0.1l2.5-3.7c0,0,0,0,0-0.1l0,0V1.3c0,0,0-0.1-0.1-0.1
	h-8.4c0,0-0.1,0-0.1,0.1L42.7,3.3C42.5,3.3,42.5,3.3,42.7,3.3z M51.7,8.1H41.5c0,0-0.1,0-0.1,0.1v1.9c0,0,0,0.1,0.1,0.1h7.5
	l-1.3,2.7v0.1c0,0,0,0,0.1,0h2h0.1l1.9-2.8c0,0,0,0,0-0.1l0,0V8.1C51.9,8.1,51.9,8.1,51.7,8.1z M22.1,19.6v1.7c0,0,0,0.1-0.1,0.1
	H1.5c0,0-0.1,0-0.1-0.1v-1.7c0,0,0-0.1,0.1-0.1h8.9v-1.3h-6c0,0-0.1,0-0.1-0.1v-1.6c0,0,0-0.1,0.1-0.1h6v-1.3H4.3l-0.5,0.9
	c0,0,0,0-0.1,0H0.9H0.8v-0.1l2.3-4c0,0,0,0,0.1,0h2.7H6v0.1l-0.7,1.1h5.1v-2H3.1c0,0-0.1,0-0.1-0.1V1.2c0,0,0-0.1,0.1-0.1h17.5
	c0,0,0.1,0,0.1,0.1v9.6c0,0,0,0.1-0.1,0.1h-7.3v1.9h6.9c0,0,0.1,0,0.1,0.1v1.7c0,0,0,0.1-0.1,0.1h-6.9v1.3h5.9c0,0,0.1,0,0.1,0.1
	v1.6c0,0,0,0.1-0.1,0.1h-5.9v1.3L22.1,19.6C22.1,19.5,22.1,19.5,22.1,19.6z M5.3,3.3v5.3h12.8V3.3H5.3z M100.9,1.9v19.3
	c0,0,0,0.1-0.1,0.1H81.3c0,0-0.1,0-0.1-0.1V1.9c0,0,0-0.1,0.1-0.1L100.9,1.9C100.8,1.7,100.9,1.7,100.9,1.9z M98.5,18.9V4H83.6v14.9
	H98.5z M40.3,18L40.3,18v2c0,0,0,0.1-0.1,0.1l-12.9,1.5l0,0c0,0,0,0-0.1,0c0,0,0,0,0-0.1v-1.9c0,0,0-0.1,0.1-0.1l5.1-0.5v-1.9h-3.3
	c0,0-0.1,0-0.1-0.1v-1.9c0,0,0-0.1,0.1-0.1h3.3v-1.7h-4.5c0,0-0.1,0-0.1-0.1V1.3c0,0,0-0.1,0.1-0.1h11.7c0,0,0.1,0,0.1,0.1v11.9
	c0,0,0,0.1-0.1,0.1h-4.4v1.6h3.2c0,0,0.1,0,0.1,0.1v1.9c0,0,0,0.1-0.1,0.1h-3.2v1.6L40.3,18C40.1,18,40.3,18,40.3,18z M30.1,3.5v7.5
	h7.2V3.5H30.1z M46.5,11.6H44c0,0-0.1,0-0.1,0.1v9.7c0,0,0,0.1,0.1,0.1h2.5c0,0,0.1,0,0.1-0.1L46.5,11.6
	C46.7,11.6,46.5,11.6,46.5,11.6z M31.2,8.3h1.5v1.6c0,0,0,0.1,0.1,0.1h1.9c0,0,0.1,0,0.1-0.1V8.3h1.5c0,0,0.1,0,0.1-0.1V6.4
	c0,0,0-0.1-0.1-0.1h-1.5V4.7c0,0,0-0.1-0.1-0.1h-1.9c0,0-0.1,0-0.1,0.1v1.6h-1.5c0,0-0.1,0-0.1,0.1L31.2,8.3
	C31.1,8.1,31.2,8.3,31.2,8.3z M90.3,13.3h-1.9l-0.5-1.7c0-0.1-0.1-0.1-0.1,0l-0.7,1.7h-1.9c0,0-0.1,0-0.1,0.1v0.1l1.5,1.1L86,16.4
	v0.1l0,0l0,0l1.5-1.1l1.5,1.1h0.1v-0.1l-0.5-1.7l1.5-1.1C90.4,13.5,90.4,13.5,90.3,13.3C90.4,13.3,90.3,13.3,90.3,13.3z M7.2,23.9
	H5.9c-0.1,0-0.1,0.1-0.1,0.1v3.7H2.7V24c0,0,0-0.1-0.1-0.1H1.2c0,0-0.1,0-0.1,0.1v7.9c0,0,0,0.1,0.1,0.1h1.3c0,0,0.1,0,0.1-0.1v-2.8
	h3.1v2.8c0,0.1,0,0.1,0.1,0.1h1.3c0,0,0.1,0,0.1-0.1L7.2,23.9C7.2,24,7.2,23.9,7.2,23.9z M29.3,26.3C29.3,26.1,29.3,26.1,29.3,26.3
	L29.3,26.3h-1.2h-2V24c0,0,0-0.1-0.1-0.1h-1.2c0,0-0.1,0-0.1,0.1v7.9c0,0,0,0.1,0.1,0.1H26c0,0,0.1,0,0.1-0.1v-4.5h2v4.5
	c0,0,0,0.1,0.1,0.1h1.2c0,0,0.1,0,0.1-0.1v-5.2L29.3,26.3C29.5,26.3,29.3,26.3,29.3,26.3z M33.6,26.1h-1.2c0,0-0.1,0-0.1,0.1v5.6
	c0,0,0,0.1,0.1,0.1h1.2c0,0,0.1,0,0.1-0.1L33.6,26.1C33.7,26.3,33.7,26.1,33.6,26.1z M33.6,23.9h-1.2c0,0-0.1,0-0.1,0.1v1.2
	c0,0,0,0.1,0.1,0.1h1.2c0,0,0.1,0,0.1-0.1L33.6,23.9C33.7,24,33.7,23.9,33.6,23.9z M41.6,26.3L41.6,26.3L41.6,26.3L41.6,26.3
	L41.6,26.3C41.6,26.1,41.6,26.1,41.6,26.3C41.6,26.1,41.6,26.1,41.6,26.3C41.6,26.1,41.6,26.1,41.6,26.3c-0.1-0.1-0.1-0.1-0.1-0.1
	L38,27.9v-1.6c0,0,0-0.1-0.1-0.1h-1.2c0,0-0.1,0-0.1,0.1v5.6c0,0,0,0.1,0.1,0.1h1.2c0,0,0.1,0,0.1-0.1v-2.4l2.3-1.1v3.5
	c0,0,0,0.1,0.1,0.1h1.2c0,0,0.1,0,0.1-0.1L41.6,26.3C41.7,26.3,41.7,26.3,41.6,26.3C41.7,26.3,41.6,26.3,41.6,26.3z M21.7,28.9
	L21.7,28.9L21.7,28.9L21.7,28.9L21.7,28.9L21.7,28.9l-2.9-0.5v-0.9h2.8c0,0,0.1,0,0.1-0.1v-1.1c0,0,0-0.1-0.1-0.1h-2.9h-1.2
	c0,0-0.1,0-0.1,0.1v1.1v0.9v1.1l0,0l0,0l0,0l0,0l0,0l0,0l0,0l2.8,0.5v0.8h-2.8c0,0-0.1,0-0.1,0.1v1.1c0,0,0,0,0,0.1c0,0,0,0,0.1,0
	h2.9h1.5c0,0,0.1,0,0.1-0.1v-1.1V30L21.7,28.9L21.7,28.9L21.7,28.9z M101.2,28.9L101.2,28.9L101.2,28.9L101.2,28.9L101.2,28.9
	L101.2,28.9l-2.9-0.5v-0.9h2.8c0,0,0.1,0,0.1-0.1v-1.1c0,0,0-0.1-0.1-0.1h-2.9h-1.2c0,0-0.1,0-0.1,0.1v1.1v0.9v1.1l0,0l0,0l0,0l0,0
	l0,0l0,0l0,0l2.8,0.5v0.8h-2.8c0,0-0.1,0-0.1,0.1v1.1c0,0,0,0,0,0.1c0,0,0,0,0.1,0h2.9h1.2c0,0,0.1,0,0.1-0.1v-1.1V30L101.2,28.9
	L101.2,28.9L101.2,28.9z M14.5,26.3v1.1v3.7v0.8l0,0c0,0,0,0.1-0.1,0.1h-1.1l0,0h-2.1l0,0H10c0,0-0.1,0-0.1-0.1l0,0v-0.8v-3.7v-1.1
	c0,0,0-0.1,0.1-0.1h1.1h2.1L14.5,26.3C14.5,26.1,14.5,26.3,14.5,26.3z M13.2,30.9v-3.6h-1.9v3.6H13.2z M49.2,26.3v1.1v3.7v0.8l0,0
	c0,0,0,0.1-0.1,0.1H48l0,0h-2.1l0,0h-1.1c0,0-0.1,0-0.1-0.1l0,0v-0.8v-3.7v-1.1c0,0,0-0.1,0.1-0.1h1.1H48L49.2,26.3
	C49.1,26.1,49.2,26.3,49.2,26.3z M47.9,30.9v-3.6H46v3.6H47.9z M74.9,28.9L74.9,28.9L74.9,28.9L74.9,28.9
	C74.9,28.8,74.9,28.8,74.9,28.9C74.9,28.8,74.9,28.8,74.9,28.9L72,28.3v-0.9h2.8c0,0,0.1,0,0.1-0.1v-1.1c0,0,0-0.1-0.1-0.1h-2.9
	h-1.2c0,0-0.1,0-0.1,0.1v1.1V28v1.1l0,0l0,0l0,0l0,0l0,0l0,0l0,0l2.8,0.5v0.9h-2.8c0,0-0.1,0-0.1,0.1v1.1c0,0,0,0,0,0.1
	c0,0,0,0,0.1,0h3.2h1.2c0,0,0.1,0,0.1-0.1v-1.1v-0.8L74.9,28.9L74.9,28.9L74.9,28.9z M88.9,26.1L88.9,26.1l-2.3,1.3v-1.2
	c0,0,0-0.1-0.1-0.1h-1.2c0,0-0.1,0-0.1,0.1v5.6c0,0,0,0.1,0.1,0.1h1.2c0,0,0.1,0,0.1-0.1v-2.8l2.4-1.5c0,0,0,0,0-0.1L88.9,26.1
	L88.9,26.1z M67.7,27.3v-1.1c0,0,0-0.1-0.1-0.1h-1.2h-2h-1.2c0,0-0.1,0-0.1,0.1v1.1v3.5v1.1l0,0c0,0,0,0.1,0.1,0.1h1.2l0,0h3.2
	c0,0,0.1,0,0.1-0.1v-1.1c0,0,0-0.1-0.1-0.1h-3.1v-3.3h1.9v1.1l-1.1,0.3c0,0-0.1,0-0.1,0.1v1.1c0,0,0,0,0,0.1l0,0l0,0l2.3-0.5l0,0
	l0,0l0,0l0,0c0,0,0,0,0-0.1v-1.1l0,0v-0.9H67.7z M82.5,26.3v1.1v3.7v0.8l0,0c0,0,0,0.1-0.1,0.1h-1.1l0,0h-2.1l0,0h-1.1
	c0,0-0.1,0-0.1-0.1l0,0v-0.8v-3.7v-1.1c0,0,0-0.1,0.1-0.1h1.1h2.1L82.5,26.3C82.4,26.1,82.5,26.3,82.5,26.3z M81.2,30.9v-3.6h-1.9
	v3.6H81.2z M60.4,26.8C60.4,26.8,60.4,26.9,60.4,26.8l-1.3,2.5l1.1,2.5V32c0,0,0,0-0.1,0h-1.5h-0.1l-0.9-2.1h-2.1v2
	c0,0,0,0.1-0.1,0.1h-1.3c0,0-0.1,0-0.1-0.1v-6.7V24c0,0,0-0.1,0.1-0.1h1.3h3.2l0,0l0,0l0,0l0,0l0,0L60.4,26.8z M55.6,25.3v3.1H58
	l0.8-1.6l-1.1-1.5H55.6z M94.9,26.1h-1.3v-1.9c0,0,0-0.1-0.1-0.1h-1.1c0,0-0.1,0-0.1,0.1v1.9h-1.3c0,0-0.1,0-0.1,0.1v1.1
	c0,0,0,0.1,0.1,0.1h1.3v4.4c0,0,0,0.1,0.1,0.1h1.2c0,0,0.1,0,0.1-0.1v-4.4h1.3c0,0,0.1,0,0.1-0.1L94.9,26.1
	C95.1,26.3,94.9,26.1,94.9,26.1z"/>
</svg>
